<svg width="165" height="43" viewBox="0 0 165 43" fill="none" xmlns="http://www.w3.org/2000/svg">
    <g filter="url(#filter0_d_56_5602)">
        <rect x="15.8506" y="8.05548" width="24.7834" height="23.1184" rx="0.913078"
            transform="rotate(14.7129 15.8506 8.05548)" fill="#FF89F0" />
    </g>
    <g filter="url(#filter1_d_56_5602)">
        <rect x="2.03223" y="11.4861" width="26.0879" height="23.1184" rx="0.913078"
            transform="rotate(-14.7846 2.03223 11.4861)" fill="#FFCA4F" />
    </g>
    <g filter="url(#filter2_d_56_5602)">
        <rect x="5.87305" y="15.0954" width="30.1851" height="23.1184" rx="0.913078" fill="#7348FF" />
    </g>
    <circle cx="12.1183" cy="20.8184" r="3.53818" fill="#4E2AC3" />
    <rect x="8.58008" y="26.3132" width="24.5553" height="1.43484" fill="#4E2AC3" />
    <rect x="17.9062" y="20.1173" width="10.8591" height="1.43484" fill="#4E2AC3" />
    <rect x="8.58008" y="29.7046" width="24.5553" height="1.43484" fill="#4E2AC3" />
    <rect x="8.58008" y="33.096" width="13.957" height="1.43484" fill="#4E2AC3" />
    <path
        d="M52.1549 29V14.1802H58.0705C61.2337 14.1802 63.1645 15.9364 63.1645 18.8018V18.8223C63.1645 20.8147 62.0964 22.4271 60.371 23.0536L63.6061 29H60.5867L57.6699 23.4541H54.8046V29H52.1549ZM54.8046 21.359H57.7932C59.4672 21.359 60.4531 20.4347 60.4531 18.8429V18.8223C60.4531 17.2715 59.4056 16.3267 57.7418 16.3267H54.8046V21.359ZM69.7681 29.2157C66.5022 29.2157 64.5304 27.0487 64.5304 23.5876V23.5774C64.5304 20.1472 66.5331 17.8877 69.6449 17.8877C72.7567 17.8877 74.6875 20.0753 74.6875 23.3617V24.1833H67.0671C67.1082 26.0936 68.1557 27.2233 69.8195 27.2233C71.093 27.2233 71.9249 26.5454 72.1713 25.8163L72.1919 25.7444H74.5848L74.554 25.8573C74.2151 27.5314 72.613 29.2157 69.7681 29.2157ZM69.6757 19.8904C68.3201 19.8904 67.3033 20.8044 67.0979 22.4785H72.2022C72.0173 20.7531 71.0314 19.8904 69.6757 19.8904ZM78.8675 29L75.0162 18.1137H77.7378L80.2642 26.6276H80.3258L82.842 18.1137H85.5122L81.6815 29H78.8675ZM88.049 16.5526C87.2479 16.5526 86.6214 15.9159 86.6214 15.1559C86.6214 14.3754 87.2479 13.7489 88.049 13.7489C88.85 13.7489 89.4662 14.3754 89.4662 15.1559C89.4662 15.9159 88.85 16.5526 88.049 16.5526ZM86.7652 29V18.1137H89.3224V29H86.7652ZM96.2856 29.2157C93.0197 29.2157 91.0478 27.0487 91.0478 23.5876V23.5774C91.0478 20.1472 93.0505 17.8877 96.1623 17.8877C99.2742 17.8877 101.205 20.0753 101.205 23.3617V24.1833H93.5845C93.6256 26.0936 94.6732 27.2233 96.3369 27.2233C97.6104 27.2233 98.4423 26.5454 98.6888 25.8163L98.7093 25.7444H101.102L101.071 25.8573C100.733 27.5314 99.1304 29.2157 96.2856 29.2157ZM96.1932 19.8904C94.8375 19.8904 93.8208 20.8044 93.6154 22.4785H98.7196C98.5347 20.7531 97.5488 19.8904 96.1932 19.8904ZM104.943 29L101.996 18.1137H104.563L106.402 26.4736H106.453L108.579 18.1137H111.033L113.159 26.4736H113.221L115.059 18.1137H117.586L114.638 29H111.948L109.801 21.0407H109.75L107.614 29H104.943ZM124.323 29.2568C120.924 29.2568 118.685 27.6546 118.51 24.9947L118.5 24.8406H121.037L121.057 24.9638C121.252 26.2373 122.557 27.0281 124.415 27.0281C126.285 27.0281 127.455 26.1963 127.455 24.9228V24.9125C127.455 23.8033 126.685 23.2077 124.775 22.8071L123.183 22.4785C120.266 21.8725 118.828 20.5169 118.828 18.3088V18.2985C118.839 15.6899 121.129 13.9235 124.323 13.9235C127.558 13.9235 129.674 15.6283 129.828 18.165L129.838 18.3396H127.301L127.281 18.2164C127.106 16.9223 125.966 16.1521 124.302 16.1521C122.567 16.1624 121.488 16.9737 121.488 18.1548V18.165C121.488 19.2126 122.3 19.8288 124.087 20.1985L125.689 20.5272C128.77 21.1639 130.115 22.4169 130.115 24.7276V24.7379C130.115 27.5006 127.938 29.2568 124.323 29.2568ZM133.299 32.6151C132.806 32.6151 132.293 32.5535 131.985 32.5021V30.5508C132.18 30.5919 132.477 30.6432 132.837 30.6432C133.813 30.6432 134.357 30.3659 134.686 29.4519L134.84 29.0103L130.927 18.1137H133.72L136.267 26.8227H136.339L138.896 18.1137H141.587L137.674 29.3697C136.842 31.7627 135.569 32.6151 133.299 32.6151ZM142.768 29V18.1137H145.325V19.8185H145.377C145.942 18.6477 147.051 17.8877 148.704 17.8877C151.097 17.8877 152.463 19.4283 152.463 21.9547V29H149.906V22.4682C149.906 20.9174 149.187 20.0445 147.729 20.0445C146.26 20.0445 145.325 21.1126 145.325 22.6839V29H142.768ZM159.324 29.2157C156.088 29.2157 154.065 27.0384 154.065 23.5466V23.5363C154.065 20.065 156.119 17.8877 159.293 17.8877C162.158 17.8877 163.945 19.7055 164.099 21.8828L164.109 21.965H161.696L161.675 21.8725C161.46 20.8147 160.679 19.9623 159.324 19.9623C157.711 19.9623 156.674 21.3282 156.674 23.5568V23.5671C156.674 25.8368 157.721 27.1514 159.334 27.1514C160.628 27.1514 161.449 26.3811 161.686 25.2411L161.706 25.1487H164.12L164.109 25.2206C163.914 27.4903 162.076 29.2157 159.324 29.2157Z"
        fill="#333333" />
    <defs>
        <filter id="filter0_d_56_5602" x="10.1807" y="7.99634" width="29.5037" height="28.5121"
            filterUnits="userSpaceOnUse" color-interpolation-filters="sRGB">
            <feFlood flood-opacity="0" result="BackgroundImageFix" />
            <feColorMatrix in="SourceAlpha" type="matrix"
                values="0 0 0 0 0 0 0 0 0 0 0 0 0 0 0 0 0 0 127 0" result="hardAlpha" />
            <feOffset dx="0.0652198" dy="-0.260879" />
            <feComposite in2="hardAlpha" operator="out" />
            <feColorMatrix type="matrix"
                values="0 0 0 0 0.92819 0 0 0 0 0.353162 0 0 0 0 0.854177 0 0 0 1 0" />
            <feBlend mode="normal" in2="BackgroundImageFix" result="effect1_dropShadow_56_5602" />
            <feBlend mode="normal" in="SourceGraphic" in2="effect1_dropShadow_56_5602"
                result="shape" />
        </filter>
        <filter id="filter1_d_56_5602" x="2.13655" y="4.77047" width="30.8166" height="28.866"
            filterUnits="userSpaceOnUse" color-interpolation-filters="sRGB">
            <feFlood flood-opacity="0" result="BackgroundImageFix" />
            <feColorMatrix in="SourceAlpha" type="matrix"
                values="0 0 0 0 0 0 0 0 0 0 0 0 0 0 0 0 0 0 127 0" result="hardAlpha" />
            <feOffset dx="-0.0978298" dy="-0.260879" />
            <feComposite in2="hardAlpha" operator="out" />
            <feColorMatrix type="matrix"
                values="0 0 0 0 0.937255 0 0 0 0 0.611765 0 0 0 0 0.160784 0 0 0 1 0" />
            <feBlend mode="normal" in2="BackgroundImageFix" result="effect1_dropShadow_56_5602" />
            <feBlend mode="normal" in="SourceGraphic" in2="effect1_dropShadow_56_5602"
                result="shape" />
        </filter>
        <filter id="filter2_d_56_5602" x="5.87305" y="14.7693" width="30.1855" height="23.4445"
            filterUnits="userSpaceOnUse" color-interpolation-filters="sRGB">
            <feFlood flood-opacity="0" result="BackgroundImageFix" />
            <feColorMatrix in="SourceAlpha" type="matrix"
                values="0 0 0 0 0 0 0 0 0 0 0 0 0 0 0 0 0 0 127 0" result="hardAlpha" />
            <feOffset dy="-0.326099" />
            <feComposite in2="hardAlpha" operator="out" />
            <feColorMatrix type="matrix"
                values="0 0 0 0 0.579783 0 0 0 0 0.450716 0 0 0 0 1 0 0 0 1 0" />
            <feBlend mode="normal" in2="BackgroundImageFix" result="effect1_dropShadow_56_5602" />
            <feBlend mode="normal" in="SourceGraphic" in2="effect1_dropShadow_56_5602"
                result="shape" />
        </filter>
    </defs>
</svg>